<svg xmlns="http://www.w3.org/2000/svg" width="24" height="15.004" viewBox="0 0 24 15.004"><defs><style>.a{fill:#fff;}</style></defs><path class="a" d="M6.941,6.755a8.921,8.921,0,0,1,1.921.188,4.32,4.32,0,0,1,1.486.61,2.812,2.812,0,0,1,.96,1.12,4,4,0,0,1,.34,1.731,3.256,3.256,0,0,1-.507,1.861,3.665,3.665,0,0,1-1.5,1.22,3.525,3.525,0,0,1,2.023,1.371,4.106,4.106,0,0,1,.665,2.361,4.136,4.136,0,0,1-.41,1.931,3.7,3.7,0,0,1-1.16,1.351,5.092,5.092,0,0,1-1.671.767,7.318,7.318,0,0,1-1.911.254H0V6.762H6.941ZM16.947,18.921a2.61,2.61,0,0,0,1.895.643,2.613,2.613,0,0,0,1.531-.447,1.842,1.842,0,0,0,.78-.94h2.589a4.87,4.87,0,0,1-1.9,2.751,5.488,5.488,0,0,1-3.081.83,6.131,6.131,0,0,1-2.273-.4,4.95,4.95,0,0,1-1.721-1.14,5.1,5.1,0,0,1-1.077-1.771,6.564,6.564,0,0,1-.373-2.271,6.084,6.084,0,0,1,.4-2.231,5.193,5.193,0,0,1,2.857-2.985,5.36,5.36,0,0,1,2.221-.433,5.043,5.043,0,0,1,2.381.523,4.8,4.8,0,0,1,1.661,1.4,5.571,5.571,0,0,1,.94,2.021,8.072,8.072,0,0,1,.21,2.381H16.3a3.032,3.032,0,0,0,.71,2.066l-.08.03ZM6.7,18.971a4.212,4.212,0,0,0,.906-.093,2.32,2.32,0,0,0,.763-.3,1.482,1.482,0,0,0,.52-.583,2.051,2.051,0,0,0,.19-.96,1.942,1.942,0,0,0-.64-1.621,2.755,2.755,0,0,0-1.691-.48H3.241v4.052H6.7v-.03Zm13.612-5.652a2.2,2.2,0,0,0-1.658-.592,2.481,2.481,0,0,0-1.166.238,2.155,2.155,0,0,0-.74.59,2.083,2.083,0,0,0-.392.75,3.507,3.507,0,0,0-.135.71h4.764a2.858,2.858,0,0,0-.68-1.691v.01ZM6.523,12.7a2.33,2.33,0,0,0,1.426-.412A1.54,1.54,0,0,0,8.5,10.953a1.885,1.885,0,0,0-.18-.846,1.462,1.462,0,0,0-.5-.512,2.118,2.118,0,0,0-.72-.257,4.428,4.428,0,0,0-.84-.074H3.231V12.7H6.523Zm9.1-4.96h5.97V9.2h-5.97V7.742Z" transform="translate(0 -6.755)"/></svg>