<svg xmlns="http://www.w3.org/2000/svg" width="24" height="24" viewBox="0 0 24 24"><defs><style>.a{fill:#fff;}</style></defs><path class="a" d="M12.563.563a12,12,0,1,0,12,12A12.014,12.014,0,0,0,12.563.563ZM20.5,6.1a10.2,10.2,0,0,1,2.315,6.385,23.953,23.953,0,0,0-7.137-.33c-.278-.679-.541-1.277-.9-2.014A13.654,13.654,0,0,0,20.5,6.1ZM19.357,4.911a11.573,11.573,0,0,1-5.372,3.7,54.712,54.712,0,0,0-3.825-6,10.223,10.223,0,0,1,9.2,2.3ZM8.2,3.3A65.4,65.4,0,0,1,12,9.23a38.232,38.232,0,0,1-9.476,1.249A10.287,10.287,0,0,1,8.2,3.3ZM2.313,12.578c0-.1,0-.209.005-.313a37.81,37.81,0,0,0,10.534-1.459c.293.574.574,1.157.831,1.739a15.876,15.876,0,0,0-8.735,6.886A10.209,10.209,0,0,1,2.313,12.578Zm3.958,8.086c1.071-2.189,3.976-5.014,8.109-6.424a42.606,42.606,0,0,1,2.187,7.773,10.229,10.229,0,0,1-10.3-1.349Zm12.018.411A44.239,44.239,0,0,0,16.3,13.767a15.044,15.044,0,0,1,6.385.438,10.268,10.268,0,0,1-4.393,6.87Z" transform="translate(-0.563 -0.563)"/></svg>